{"accessors" : [{"bufferView" : 0, "byteOffset" : 0, "componentType" : 5123, "count" : 570, "type" : "SCALAR", "max" : [569], "min" : [0]}, {"bufferView" : 1, "byteOffset" : 0, "componentType" : 5126, "count" : 570, "type" : "VEC3", "max" : [0.05038032680749893, 0.6688134074211121, 0.06949346512556076], "min" : [0.01582234352827072, 0.6343391537666321, 0.05111544579267502]}, {"bufferView" : 1, "byteOffset" : 12, "componentType" : 5126, "count" : 570, "type" : "VEC3", "max" : [0.9745171666145325, 0.979250967502594, 1.0000042915344238], "min" : [-0.9743993878364563, -0.9773390293121338, 0.197991743683815]}, {"bufferView" : 1, "byteOffset" : 24, "componentType" : 5126, "count" : 570, "type" : "VEC2", "max" : [0.9646214246749878, 0.9818061590194702], "min" : [0.019903719425201416, 0.020990610122680664]}, {"bufferView" : 1, "byteOffset" : 32, "componentType" : 5126, "count" : 570, "type" : "VEC2", "max" : [0.9935725927352905, 0.9611957669258118], "min" : [0.04407842457294464, 0.020823240280151367]}, {"bufferView" : 0, "byteOffset" : 1140, "componentType" : 5123, "count" : 2274, "type" : "SCALAR", "max" : [2273], "min" : [0]}, {"bufferView" : 4, "byteOffset" : 0, "componentType" : 5126, "count" : 2274, "type" : "VEC3", "max" : [0.07026161253452301, 0.7623307108879089, 0.07638580352067947], "min" : [-0.07148250192403793, 0.7028967142105103, -0.09855189174413681]}, {"bufferView" : 4, "byteOffset" : 12, "componentType" : 5126, "count" : 2274, "type" : "VEC3", "max" : [0.9947807788848877, 0.9990721940994263, 0.9612444043159485], "min" : [-0.9974530339241028, -0.8340401649475098, -0.9909063577651978]}, {"bufferView" : 4, "byteOffset" : 24, "componentType" : 5126, "count" : 2274, "type" : "VEC2", "max" : [0.9180185198783875, 0.9752692580223083], "min" : [0.08046714216470718, 0.0315890908241272]}, {"bufferView" : 0, "byteOffset" : 5688, "componentType" : 5123, "count" : 10344, "type" : "SCALAR", "max" : [10343], "min" : [0]}, {"bufferView" : 7, "byteOffset" : 0, "componentType" : 5126, "count" : 10344, "type" : "VEC3", "max" : [0.8336747288703918, 0.3603891432285309, 0.09627869725227356], "min" : [-0.8336747288703918, 0.31057631969451904, -0.04603327065706253]}, {"bufferView" : 7, "byteOffset" : 12, "componentType" : 5126, "count" : 10344, "type" : "VEC3", "max" : [0.9994828104972839, 0.9997457265853882, 0.9974437952041626], "min" : [-0.9994829297065735, -0.9997031092643738, -0.9974483847618103]}, {"bufferView" : 7, "byteOffset" : 24, "componentType" : 5126, "count" : 10344, "type" : "VEC2", "max" : [0.968315601348877, 0.9907870292663574], "min" : [0.46754491329193115, 0.4208555221557617]}, {"bufferView" : 0, "byteOffset" : 26376, "componentType" : 5123, "count" : 12282, "type" : "SCALAR", "max" : [12281], "min" : [0]}, {"bufferView" : 9, "byteOffset" : 0, "componentType" : 5126, "count" : 12282, "type" : "VEC3", "max" : [0.09544159471988678, 0.7566635608673096, 0.10265284776687622], "min" : [-0.0954425111413002, 0.44184237718582153, -0.12177663296461105]}, {"bufferView" : 9, "byteOffset" : 12, "componentType" : 5126, "count" : 12282, "type" : "VEC3", "max" : [0.9989324808120728, 0.9994412064552307, 1.0000030994415283], "min" : [-0.998933732509613, -0.9988324046134949, -1.0000040531158447]}, {"bufferView" : 9, "byteOffset" : 24, "componentType" : 5126, "count" : 12282, "type" : "VEC2", "max" : [0.9943000078201294, 0.9807000160217285], "min" : [0.004999999888241291, 0.004350006580352783]}, {"bufferView" : 9, "byteOffset" : 32, "componentType" : 5126, "count" : 12282, "type" : "VEC2", "max" : [0, 1], "min" : [0, 1]}, {"bufferView" : 0, "byteOffset" : 50940, "componentType" : 5123, "count" : 4632, "type" : "SCALAR", "max" : [4631], "min" : [0]}, {"bufferView" : 11, "byteOffset" : 0, "componentType" : 5126, "count" : 4632, "type" : "VEC3", "max" : [0.11210249364376068, 0.5754687190055847, 0.048237983137369156], "min" : [-0.11226270347833633, 0.39793941378593445, -0.13610722124576569]}, {"bufferView" : 11, "byteOffset" : 12, "componentType" : 5126, "count" : 4632, "type" : "VEC3", "max" : [0.9981958866119385, 0.9929819703102112, 0.9997842907905579], "min" : [-0.9998857378959656, -0.9903526306152344, -0.9998577833175659]}, {"bufferView" : 11, "byteOffset" : 24, "componentType" : 5126, "count" : 4632, "type" : "VEC2", "max" : [0.9983999729156494, 0.9983999729156494], "min" : [0.0015999999595806003, 0.10670000314712524]}, {"bufferView" : 0, "byteOffset" : 60204, "componentType" : 5123, "count" : 120, "type" : "SCALAR", "max" : [119], "min" : [0]}, {"bufferView" : 14, "byteOffset" : 0, "componentType" : 5126, "count" : 120, "type" : "VEC3", "max" : [0.023750875145196915, 0.5967552661895752, 0.08000321686267853], "min" : [-0.023592444136738777, 0.5827134847640991, 0.042461492121219635]}, {"bufferView" : 14, "byteOffset" : 12, "componentType" : 5126, "count" : 120, "type" : "VEC3", "max" : [0.9914541244506836, -0.018092861399054527, 0.993641197681427], "min" : [-0.9914540648460388, -0.3531021773815155, 0.0828637108206749]}, {"bufferView" : 14, "byteOffset" : 24, "componentType" : 5126, "count" : 120, "type" : "VEC2", "max" : [0.9929437637329102, 0.9904778599739075], "min" : [0.9133061766624451, 0.9416266083717346]}], "asset" : {"generator" : "Aspose.3D 20.11", "version" : "2.0"}, "buffers" : [{"uri" : "buffer.bin", "byteLength" : 1441896}], "bufferViews" : [{"buffer" : 0, "byteOffset" : 0, "byteLength" : 60444, "target" : 34963}, {"buffer" : 0, "byteOffset" : 60448, "byteLength" : 22800, "byteStride" : 40, "target" : 34962}, {"buffer" : 0, "byteOffset" : 83252, "byteLength" : 3364}, {"buffer" : 0, "byteOffset" : 86620, "byteLength" : 3364}, {"buffer" : 0, "byteOffset" : 89988, "byteLength" : 72768, "byteStride" : 32, "target" : 34962}, {"buffer" : 0, "byteOffset" : 162760, "byteLength" : 94357}, {"buffer" : 0, "byteOffset" : 257120, "byteLength" : 1667}, {"buffer" : 0, "byteOffset" : 258788, "byteLength" : 331008, "byteStride" : 32, "target" : 34962}, {"buffer" : 0, "byteOffset" : 589800, "byteLength" : 26181}, {"buffer" : 0, "byteOffset" : 615984, "byteLength" : 491280, "byteStride" : 40, "target" : 34962}, {"buffer" : 0, "byteOffset" : 1107268, "byteLength" : 26181}, {"buffer" : 0, "byteOffset" : 1133452, "byteLength" : 148224, "byteStride" : 32, "target" : 34962}, {"buffer" : 0, "byteOffset" : 1281680, "byteLength" : 74699}, {"buffer" : 0, "byteOffset" : 1356380, "byteLength" : 81668}, {"buffer" : 0, "byteOffset" : 1438052, "byteLength" : 3840, "byteStride" : 32, "target" : 34962}], "images" : [{"mimeType" : "image/jpeg", "bufferView" : 2}, {"mimeType" : "image/jpeg", "bufferView" : 3}, {"mimeType" : "image/png", "bufferView" : 5}, {"mimeType" : "image/jpeg", "bufferView" : 6}, {"mimeType" : "image/jpeg", "bufferView" : 8}, {"mimeType" : "image/jpeg", "bufferView" : 10}, {"mimeType" : "image/png", "bufferView" : 12}, {"mimeType" : "image/png", "bufferView" : 13}], "materials" : [{"pbrMetallicRoughness" : {"baseColorFactor" : [1, 1, 1, 1], "baseColorTexture" : {"index" : 0, "texCoord" : 0}, "metallicFactor" : 0, "roughnessFactor" : 1}, "emissiveFactor" : [0, 0, 0], "alphaMode" : "OPAQUE", "doubleSided" : true}, {"pbrMetallicRoughness" : {"baseColorFactor" : [1, 1, 1, 1], "baseColorTexture" : {"index" : 1, "texCoord" : 0}, "metallicFactor" : 0, "roughnessFactor" : 1}, "emissiveFactor" : [0, 0, 0], "alphaMode" : "OPAQUE", "doubleSided" : true}, {"pbrMetallicRoughness" : {"baseColorFactor" : [1, 1, 1, 1], "baseColorTexture" : {"index" : 3, "texCoord" : 0}, "metallicFactor" : 0.03636400029063225, "roughnessFactor" : 0.6055644154548645}, "normalTexture" : {"index" : 2, "texCoord" : 0, "scale" : 1}, "emissiveFactor" : [0, 0, 0], "alphaMode" : "OPAQUE", "doubleSided" : true}, {"pbrMetallicRoughness" : {"baseColorFactor" : [1, 1, 1, 1], "baseColorTexture" : {"index" : 4, "texCoord" : 0}, "metallicFactor" : 0, "roughnessFactor" : 0.699999988079071}, "emissiveFactor" : [0, 0, 0], "alphaMode" : "OPAQUE", "doubleSided" : true}, {"pbrMetallicRoughness" : {"baseColorFactor" : [1, 1, 1, 1], "baseColorTexture" : {"index" : 5, "texCoord" : 0}, "metallicFactor" : 0, "roughnessFactor" : 0.699999988079071}, "emissiveFactor" : [0, 0, 0], "alphaMode" : "OPAQUE", "doubleSided" : true}, {"pbrMetallicRoughness" : {"baseColorFactor" : [1, 1, 1, 1], "baseColorTexture" : {"index" : 7, "texCoord" : 0}, "metallicFactor" : 0, "roughnessFactor" : 1}, "normalTexture" : {"index" : 6, "texCoord" : 0, "scale" : 1}, "emissiveFactor" : [0, 0, 0], "alphaMode" : "OPAQUE", "doubleSided" : true}, {"pbrMetallicRoughness" : {"baseColorFactor" : [0.800000011920929, 0.800000011920929, 0.800000011920929, 1], "metallicFactor" : 0, "roughnessFactor" : 1}, "emissiveFactor" : [0, 0, 0], "alphaMode" : "OPAQUE", "doubleSided" : true}], "meshes" : [{"primitives" : [{"attributes" : {"POSITION" : 1, "NORMAL" : 2, "TEXCOORD_0" : 3, "TEXCOORD_1" : 4}, "indices" : 0, "material" : 0, "mode" : 4}]}, {"primitives" : [{"attributes" : {"POSITION" : 1, "NORMAL" : 2, "TEXCOORD_0" : 3, "TEXCOORD_1" : 4}, "indices" : 0, "material" : 1, "mode" : 4}]}, {"primitives" : [{"attributes" : {"POSITION" : 6, "NORMAL" : 7, "TEXCOORD_0" : 8}, "indices" : 5, "material" : 2, "mode" : 4}]}, {"primitives" : [{"attributes" : {"POSITION" : 10, "NORMAL" : 11, "TEXCOORD_0" : 12}, "indices" : 9, "material" : 3, "mode" : 4}]}, {"primitives" : [{"attributes" : {"POSITION" : 14, "NORMAL" : 15, "TEXCOORD_0" : 16, "TEXCOORD_1" : 17}, "indices" : 13, "material" : 4, "mode" : 4}]}, {"primitives" : [{"attributes" : {"POSITION" : 19, "NORMAL" : 20, "TEXCOORD_0" : 21}, "indices" : 18, "material" : 5, "mode" : 4}]}, {"primitives" : [{"attributes" : {"POSITION" : 23, "NORMAL" : 24, "TEXCOORD_0" : 25}, "indices" : 22, "material" : 6, "mode" : 4}]}], "nodes" : [{"mesh" : 0, "name" : "EyeLeft"}, {"mesh" : 1, "name" : "EyeRight"}, {"mesh" : 2, "name" : "Wolf3D_Hair"}, {"mesh" : 3, "name" : "Wolf3D_Hands"}, {"mesh" : 4, "name" : "Wolf3D_Head"}, {"mesh" : 5, "name" : "Wolf3D_Shirt"}, {"mesh" : 6, "name" : "Wolf3D_Teeth"}, {"children" : [0, 1, 2, 3, 4, 5, 6], "name" : "AvatarRoot"}], "samplers" : [{"magFilter" : 9729, "minFilter" : 9986, "wrapS" : 10497, "wrapT" : 10497}, {"magFilter" : 9729, "minFilter" : 9986, "wrapS" : 10497, "wrapT" : 10497}, {"magFilter" : 9729, "minFilter" : 9986, "wrapS" : 10497, "wrapT" : 10497}, {"magFilter" : 9729, "minFilter" : 9986, "wrapS" : 10497, "wrapT" : 10497}, {"magFilter" : 9729, "minFilter" : 9986, "wrapS" : 10497, "wrapT" : 10497}, {"magFilter" : 9729, "minFilter" : 9986, "wrapS" : 10497, "wrapT" : 10497}, {"magFilter" : 9729, "minFilter" : 9986, "wrapS" : 10497, "wrapT" : 10497}, {"magFilter" : 9729, "minFilter" : 9986, "wrapS" : 10497, "wrapT" : 10497}], "scene" : 0, "scenes" : [{"nodes" : [7]}], "textures" : [{"sampler" : 0, "source" : 0}, {"sampler" : 1, "source" : 1}, {"sampler" : 2, "source" : 2}, {"sampler" : 3, "source" : 3}, {"sampler" : 4, "source" : 4}, {"sampler" : 5, "source" : 5}, {"sampler" : 6, "source" : 6}, {"sampler" : 7, "source" : 7}]}